<?xml version="1.0" encoding="UTF-8"?>
<svg width="441.932576px" height="442.595165px" viewBox="0 0 441.932576 442.595165" version="1.1" xmlns="http://www.w3.org/2000/svg" xmlns:xlink="http://www.w3.org/1999/xlink">
    <title>Logo Copy 4</title>
    <g id="Branding-Canvas" stroke="none" stroke-width="1" fill="none" fill-rule="evenodd">
        <g id="Group" transform="translate(-1354.647, -1088.8261)" stroke="#FFFFFF" stroke-width="27">
            <g id="Logo-Copy-4" transform="translate(1368.237, 1104.8407)">
                <path d="M90.4387839,129.842509 C129.178595,123.229822 155.595237,112.6629 169.688709,98.1417431 C183.782181,83.6205859 191.688133,57.6001525 193.406566,20.0804432 C193.679658,48.7579677 202.90055,74.778401 221.06924,98.1417431 C239.23793,121.505085 267.824855,132.178651 306.830014,130.162441 C273.734453,137.963956 248.315733,150.798614 230.573856,168.666414 C212.831978,186.534215 200.442881,210.672224 193.406566,241.080443 C186.287859,206.372897 174.849437,181.660542 159.091301,166.943379 C143.333164,152.226216 120.448992,139.85926 90.4387839,129.842509 Z" id="Path" stroke-linejoin="round" transform="translate(198.6344, 130.5804) rotate(-12) translate(-198.6344, -130.5804)"></path>
                <path d="M198.438784,301.842509 C237.178595,295.229822 263.595237,284.6629 277.688709,270.141743 C291.782181,255.620586 299.688133,229.600153 301.406566,192.080443 C301.679658,220.757968 310.90055,246.778401 329.06924,270.141743 C347.23793,293.505085 375.824855,304.178651 414.830014,302.162441 C381.734453,309.963956 356.315733,322.798614 338.573856,340.666414 C320.831978,358.534215 308.442881,382.672224 301.406566,413.080443 C294.287859,378.372897 282.849437,353.660542 267.091301,338.943379 C251.333164,324.226216 228.448992,311.85926 198.438784,301.842509 Z" id="Path-Copy" stroke-linejoin="round"></path>
                <path d="M264.780019,72.456709 C316.19359,43.8080461 356.492146,46.3331693 385.675687,80.0320789 C414.859227,113.730988 407.738111,169.992966 364.312338,248.818011" id="Path-3" stroke-linecap="round"></path>
                <path d="M114.664576,88.2697066 C144.274236,67.1236207 201.451231,67.1236207 224.571377,130.580443 C249.764391,199.726574 174.907266,288.471199 0,396.814319" id="Path-3-Copy" stroke-linecap="round" transform="translate(114.6646, 236.219) scale(-1, 1) translate(-114.6646, -236.219)"></path>
            </g>
        </g>
    </g>
</svg>